<mxfile host="Electron" modified="2024-01-18T12:35:45.410Z" agent="Mozilla/5.0 (Windows NT 10.0; Win64; x64) AppleWebKit/537.36 (KHTML, like Gecko) draw.io/22.1.18 Chrome/120.0.6099.199 Electron/28.1.2 Safari/537.36" etag="GjnzgIQwU_xkxPy6wNF2" version="22.1.18" type="device">
  <diagram name="Страница — 1" id="yleVI-LyxeGsjJR6eDv2">
    <mxGraphModel dx="957" dy="482" grid="1" gridSize="10" guides="1" tooltips="1" connect="1" arrows="1" fold="1" page="1" pageScale="1" pageWidth="827" pageHeight="1169" math="0" shadow="0">
      <root>
        <mxCell id="0" />
        <mxCell id="1" parent="0" />
        <mxCell id="MgNdMAd_fjzO__9bJWsp-1" value="Requirements" style="shape=folder;fontStyle=1;spacingTop=10;tabWidth=40;tabHeight=14;tabPosition=left;html=1;whiteSpace=wrap;" vertex="1" parent="1">
          <mxGeometry x="320" y="190" width="110" height="60" as="geometry" />
        </mxCell>
        <mxCell id="MgNdMAd_fjzO__9bJWsp-4" value="" style="group" vertex="1" connectable="0" parent="1">
          <mxGeometry x="130" y="310" width="180" height="370" as="geometry" />
        </mxCell>
        <mxCell id="MgNdMAd_fjzO__9bJWsp-2" value="" style="shape=folder;fontStyle=1;spacingTop=10;tabWidth=100;tabHeight=30;tabPosition=left;html=1;whiteSpace=wrap;" vertex="1" parent="MgNdMAd_fjzO__9bJWsp-4">
          <mxGeometry width="180" height="170" as="geometry" />
        </mxCell>
        <mxCell id="MgNdMAd_fjzO__9bJWsp-3" value="&lt;b&gt;Structure&lt;/b&gt;" style="text;html=1;strokeColor=none;fillColor=none;align=center;verticalAlign=middle;whiteSpace=wrap;rounded=0;" vertex="1" parent="MgNdMAd_fjzO__9bJWsp-4">
          <mxGeometry x="20" width="60" height="30" as="geometry" />
        </mxCell>
        <mxCell id="MgNdMAd_fjzO__9bJWsp-5" value="SoC" style="shape=folder;fontStyle=1;spacingTop=10;tabWidth=40;tabHeight=14;tabPosition=left;html=1;whiteSpace=wrap;" vertex="1" parent="MgNdMAd_fjzO__9bJWsp-4">
          <mxGeometry x="35" y="70" width="110" height="60" as="geometry" />
        </mxCell>
        <mxCell id="MgNdMAd_fjzO__9bJWsp-7" value="" style="group" vertex="1" connectable="0" parent="1">
          <mxGeometry x="460" y="300" width="180" height="370" as="geometry" />
        </mxCell>
        <mxCell id="MgNdMAd_fjzO__9bJWsp-8" value="" style="shape=folder;fontStyle=1;spacingTop=10;tabWidth=100;tabHeight=30;tabPosition=left;html=1;whiteSpace=wrap;" vertex="1" parent="MgNdMAd_fjzO__9bJWsp-7">
          <mxGeometry width="180" height="290" as="geometry" />
        </mxCell>
        <mxCell id="MgNdMAd_fjzO__9bJWsp-9" value="&lt;b&gt;Behavior&lt;/b&gt;" style="text;html=1;strokeColor=none;fillColor=none;align=center;verticalAlign=middle;whiteSpace=wrap;rounded=0;" vertex="1" parent="MgNdMAd_fjzO__9bJWsp-7">
          <mxGeometry x="20" width="60" height="30" as="geometry" />
        </mxCell>
        <mxCell id="MgNdMAd_fjzO__9bJWsp-10" value="Developing&lt;br&gt;UseCases" style="shape=folder;fontStyle=1;spacingTop=10;tabWidth=40;tabHeight=14;tabPosition=left;html=1;whiteSpace=wrap;" vertex="1" parent="MgNdMAd_fjzO__9bJWsp-7">
          <mxGeometry x="35" y="70" width="110" height="60" as="geometry" />
        </mxCell>
        <mxCell id="MgNdMAd_fjzO__9bJWsp-11" value="Operations&lt;br&gt;UseCases" style="shape=folder;fontStyle=1;spacingTop=10;tabWidth=40;tabHeight=14;tabPosition=left;html=1;whiteSpace=wrap;" vertex="1" parent="MgNdMAd_fjzO__9bJWsp-7">
          <mxGeometry x="35" y="180" width="110" height="60" as="geometry" />
        </mxCell>
        <mxCell id="MgNdMAd_fjzO__9bJWsp-13" value="" style="html=1;verticalAlign=bottom;endArrow=open;dashed=1;endSize=8;curved=0;rounded=0;exitX=0.5;exitY=0;exitDx=0;exitDy=0;entryX=0.25;entryY=1;entryDx=0;entryDy=0;entryPerimeter=0;" edge="1" parent="1" source="MgNdMAd_fjzO__9bJWsp-3" target="MgNdMAd_fjzO__9bJWsp-1">
          <mxGeometry relative="1" as="geometry">
            <mxPoint x="360" y="270" as="sourcePoint" />
            <mxPoint x="280" y="270" as="targetPoint" />
          </mxGeometry>
        </mxCell>
        <mxCell id="MgNdMAd_fjzO__9bJWsp-14" value="" style="html=1;verticalAlign=bottom;endArrow=open;dashed=1;endSize=8;curved=0;rounded=0;exitX=0.5;exitY=0;exitDx=0;exitDy=0;entryX=0.75;entryY=1;entryDx=0;entryDy=0;entryPerimeter=0;" edge="1" parent="1" source="MgNdMAd_fjzO__9bJWsp-9" target="MgNdMAd_fjzO__9bJWsp-1">
          <mxGeometry relative="1" as="geometry">
            <mxPoint x="190" y="320" as="sourcePoint" />
            <mxPoint x="358" y="260" as="targetPoint" />
          </mxGeometry>
        </mxCell>
      </root>
    </mxGraphModel>
  </diagram>
</mxfile>
